<svg xmlns="http://www.w3.org/2000/svg" viewBox="0 0 120.5 120.5"><ellipse cx="51.85" cy="60.26" rx="6.41" ry="6.17" fill="none" stroke="#e40032" stroke-miterlimit="10" stroke-width="3"/><path d="M65.66,76.45a10.79,10.79,0,0,0-3.44-5,6.87,6.87,0,0,0-4.15-1.35h-14c-3.7,0-7.2,3.15-7.2,8.28V84c0,1.25.47,2.18,2,2.18H53.24" fill="none" stroke="#e40032" stroke-miterlimit="10" stroke-width="3"/><path d="M36.93,62.84V41.38a5.64,5.64,0,0,1,5.63-5.62h35.7a5.64,5.64,0,0,1,5.62,5.62V80.59a5.64,5.64,0,0,1-5.62,5.62H65.66" fill="none" stroke="#e40032" stroke-miterlimit="10" stroke-width="3"/><line x1="61.03" y1="44.66" x2="79.25" y2="44.66" fill="none" stroke="#e40032" stroke-miterlimit="10" stroke-width="3"/><line x1="61.03" y1="54.53" x2="79.25" y2="54.53" fill="none" stroke="#e40032" stroke-miterlimit="10" stroke-width="3"/><circle cx="60.25" cy="60.25" r="58.75" fill="none" stroke="#e40032" stroke-linecap="round" stroke-linejoin="round" stroke-width="3"/></svg>