<svg xmlns="http://www.w3.org/2000/svg" viewBox="0 0 120.5 120.5"><circle cx="60.25" cy="60.25" r="58.75" fill="none" stroke="#e40032" stroke-linecap="round" stroke-linejoin="round" stroke-width="3"/><path d="M83.93,42.05c1,2.54-19.87,8.29-27.47,11.16-6.58,2.49-17.1,6.67-20.33,6.62-2.21,0-8.2-2.89-8.2-9.24,0-3.82,6.45,1.29,9.7.46,1.15-.29,8.41-2.41,9.82-5.19,1.57-3.11-7.75-9.09-5.89-9,5.68.25,12,3.91,18.47,3.56C64.05,40.18,78.88,29.7,83.93,42.05Z" fill="none" stroke="#e40032" stroke-linecap="round" stroke-linejoin="round" stroke-width="3"/><path d="M85.4,61.37l-12,.07C73.09,70.37,70.84,77.87,67.6,82A23.68,23.68,0,0,0,85.4,61.37Z" fill="none"/><path d="M38.39,61.64A23.69,23.69,0,0,0,56.16,82c-3.23-4.06-5.46-11.51-5.83-20.38Z" fill="none"/><path d="M50.39,55.3,39.89,59,50.28,59C50.28,57.72,50.32,56.5,50.39,55.3Z" fill="none"/><path d="M85.51,58.77A23.45,23.45,0,0,0,80.59,44.6l-8.24,2.92a56.51,56.51,0,0,1,1.13,11.32Z" fill="none"/><path d="M70.87,58.85a53.88,53.88,0,0,0-1-10.45l-16.8,6c-.12,1.49-.18,3-.18,4.6Z" fill="none"/><path d="M61.88,82.66c2.16,0,4.37-2.37,6.08-6.5a44.42,44.42,0,0,0,2.87-14.7l-17.89.1a44.17,44.17,0,0,0,2.86,14.6C57.51,80.29,59.72,82.66,61.88,82.66Z" fill="none"/><path d="M86.75,60.47H85.33A24.3,24.3,0,0,1,67.58,81.83C65.91,84,64,85.26,61.88,85.26c14,0,25.44-11.47,26.13-25.85A1.31,1.31,0,0,1,86.75,60.47Z" fill="#e40032"/><path d="M86.7,58.76h0A1.29,1.29,0,0,1,88,59.85c0-.27,0-.55,0-.83a26.48,26.48,0,0,0-4.88-15.34l-2.52.92a23.76,23.76,0,0,1,4.83,14.17Z" fill="#e40032"/><path d="M61.88,85.26c-2.09,0-4-1.2-5.72-3.31A23.69,23.69,0,0,1,38.39,61.64H37.17a1.3,1.3,0,0,1-1.29-1.2l-.2.07A26.28,26.28,0,0,0,61.88,85.26Z" fill="#e40032"/><path d="M73.48,58.84a56.51,56.51,0,0,0-1.13-11.32l-2.48.88a53.88,53.88,0,0,1,1,10.45Z" fill="#e40032"/><path d="M52.89,59c0-1.57.06-3.11.18-4.6l-2.68.94c-.07,1.2-.11,2.42-.11,3.67Z" fill="#e40032"/><path d="M67.6,82c3.24-4.08,5.49-11.58,5.83-20.51l-2.6,0A44.42,44.42,0,0,1,68,76.16c-1.71,4.13-3.92,6.5-6.08,6.5s-4.37-2.37-6.08-6.5a44.17,44.17,0,0,1-2.86-14.6H50.33c.37,8.87,2.6,16.32,5.83,20.38,1.68,2.11,3.63,3.31,5.72,3.31S65.92,84.06,67.6,82Z" fill="#e40032"/><path d="M35.86,61.61h1.25l12.21-.07H52l18.29-.11,2.66,0,12.24-.07h1.46a1.32,1.32,0,0,0,1.29-1A1.36,1.36,0,0,0,88,60a1.49,1.49,0,0,0,0-.21,1.33,1.33,0,0,0-1.31-1.12H85.29L73,58.73l-2.66,0-18.4.1-2.66,0-10.63.06-4.1,1.45A1.33,1.33,0,0,0,35.86,61.61Z" fill="#e40032"/></svg>