<svg xmlns="http://www.w3.org/2000/svg" viewBox="0 0 126.08 130.3">
  <path
    d="M16.46,21.45,38.69,43.61l-5.75,5.54a8.85,8.85,0,0,0-.1,12.63L68.57,97.5a8.87,8.87,0,0,0,12.65-.1l5.5-5.83L109,113.8l-9.86,9.86A16.23,16.23,0,0,1,88,127.8a13.74,13.74,0,0,1-6-1.23l-.26-.13-.27-.1c-.2-.07-20.52-7.72-45.75-33.22C13.29,70.44,4.13,48.7,4,48.49l-.1-.24L3.82,48C1.26,43.08,2.56,35.27,6.6,31.23l9.85-9.78"
    fill="none" stroke="#e40032" stroke-linecap="round" stroke-linejoin="round" stroke-width="5" />
  <path d="M55.73,23.68V38.12A32.27,32.27,0,0,1,88,70.35H102.4A46.73,46.73,0,0,0,55.73,23.68Z" fill="none" />
  <path d="M55.73,43.12V70.35H83A27.27,27.27,0,0,0,55.73,43.12Z" fill="none" />
  <path d="M55.73,0V18.68A51.73,51.73,0,0,1,107.4,70.35h18.68V0Z" fill="none" />
  <path d="M55.73,18.68v5A46.73,46.73,0,0,1,102.4,70.35h5A51.73,51.73,0,0,0,55.73,18.68Z" fill="#e40032" />
  <path d="M55.73,38.12v5A27.27,27.27,0,0,1,83,70.35h5A32.27,32.27,0,0,0,55.73,38.12Z" fill="#e40032" />
  <circle cx="55.75" cy="21.18" r="2.5" fill="#e40032" />
  <circle cx="55.75" cy="40.62" r="2.5" fill="#e40032" />
  <circle cx="85.46" cy="70.35" r="2.5" fill="#e40032" />
  <circle cx="104.9" cy="70.35" r="2.5" fill="#e40032" />
</svg>