<svg xmlns="http://www.w3.org/2000/svg" viewBox="0 0 1920 1080">
  <defs>
    <style>
      .add7a367-b6b6-4dd9-b34a-26f7b050cca9 {
        fill: #000000;
      }
    </style>
  </defs>
  <g id="ac301ce7-ade5-4e39-af0b-dca693290229">
    <g id="af2c53a5-8794-47d1-934e-99b6fa3866b8">
      <path class="add7a367-b6b6-4dd9-b34a-26f7b050cca9"
        d="M0,0V1080H1920V0ZM1193.93,504.71c8.57,0,15.65,2,15.77,4.14.1,1.84-10,5.29-17.14,6-9.63.93-11-2.71-11.23-5.25C1181.06,506,1186.77,504.73,1193.93,504.71ZM890.26,575.42c-3.38.94-25.13,3.1-30.9,4.14-8.68,1.54-37.82,12.35-44.92,13.78a101.6,101.6,0,0,1-10.84,1.27l-.64.06c-4.43,0-16.86.28-15.3-5.86l.19-1.16,0-.11s.86-3.23,1.6-6.17,6.19-19.65,7.07-23S798.22,552,799,549c.92-3.7,1-5,1-5.4-.05-1-1.27-2.11-3.59-3.33-2.52-1.35-6.43-1.65-11.48-2.27-1.29-.18-4.26-.44-11.25-.61-6.11-.16-42-.17-50.1-.17l-8.23,0c-3.46,0-5.26,0-8-.18-20.35,10-49.08,24.53-84.4,43.44a248.59,248.59,0,0,0-33.47,21.24c-10.27,5.12-22.1-.13-22.1-.13l-.54-.58c-3.1-2.76,1.13-5.39,5.48-8,3.75-2.24,10.2-5.82,16.46-8.89,56.24-26.92,134.45-65.45,169.14-81.05s57.29-25.31,67.23-28.83a125.54,125.54,0,0,1,12.06-3.73,68.59,68.59,0,0,1,12.15-1.64c2.49,0,5.34.89,5.93,2.74a3.42,3.42,0,0,1-1,3.38c-2.78,3.1-17.12,37.15-23.81,64.9-1.26,5.23-7.71,36.19-7.83,37.55-.35,4,4.64,2.77,4.67,2.79.68-.06,9.48-2,26.34-6.26.42-3.63,6.95-44.08,13.76-48.47a36.78,36.78,0,0,1,5.95-2.3c8.47-2.52,11.26-3.25,15.82-3.88,0,0,4.16-.62,5.18.49s.57,2.19-.81,5.78c-1.43,3.78-3.28,7.13-7.11,18.39-3.52,10.92-3.86,16.39-4,17.31h.43c9.55,0,15.8-10.23,30.55-21.72,9.84-7.66,30.47-21.84,38.55-25.41,6.65-3,11.38-.34,11.79.64.65,1.2-23.39,15-40.78,31.86C901.74,567.22,893.92,574.42,890.26,575.42Zm453.21-48.23c-2.86,3.07-7.57,6.68-10.83,7.54-4.23.87-8.18.29-16.54-1.37-2.9-.58-30.45-2.76-58.58,8.83-8.43,3.46-21.86,14.37-25.37,17.26S1214.91,574.83,1211,578c-.59.69-2.38,2-6.91,2-2.38,0-4.38-.7-7.22-2-3.19-1.43-4.59-2.57-4.67-3.8s1-3,3.46-5.2l2.37-2.16c-2.11.91-18,7.22-26.18,9.19a109.76,109.76,0,0,1-25.38,3.08,65.61,65.61,0,0,1-11.31-.91c-2.92-.5-7.83-2-8.06-6.19a1,1,0,0,1,0-.3c-.53.28-15.4,5.64-22,7.22a109,109,0,0,1-25.36,3.09,64.63,64.63,0,0,1-11.32-.92c-2.93-.5-7.84-2-8.07-6.18-.13-2.42,1.28-5.32,4.36-8.82a139.21,139.21,0,0,1,9.89-10.13c3.75-3.5,7.63-7.08,11.68-10.75,2.14-1.93,7-5.9,8.67-7.67a5.21,5.21,0,0,0-1.73.35c-4.15,1.32-24.92,6.31-29.19,8.29a120.55,120.55,0,0,0-30.46,20.74c-3.22,3.1-7.29,6.62-12.1,10.45a10.15,10.15,0,0,1-6.66,2.45c-3.89,0-7-1.3-8.94-4.07-1.67-2.42-1.73-3.35-1.76-3.91a3.38,3.38,0,0,1,.31-1.51c-.79.28-1.58.58-2.39.86A196.18,196.18,0,0,1,976.54,578a140.19,140.19,0,0,1-27.26,2.69c-16.47,0-25.78-4.14-26.19-11.68-.25-4.42,1.77-9.22,6-14.26A67.59,67.59,0,0,1,945.44,541,111.13,111.13,0,0,1,968,530.51a81.76,81.76,0,0,1,25.5-4.47c12-.21,16.08,5.57,16.43,7.72,2.92,17.85-41,24.25-58.57,25.69a14,14,0,0,0-1,5.83c.25,4.66,3.5,6.47,11.55,6.47a84.19,84.19,0,0,0,18.59-2.19,162.29,162.29,0,0,0,19.59-5.76,156.78,156.78,0,0,0,17.55-7.62c4.31-2.21,8-4.32,11.13-6.3q3-3.3,6.19-6.8c4.63-5.12,8.62-9.77,11.83-13.79l.3-.3c1.7-1.5,4.58-2.31,8.09-2.31a19,19,0,0,1,8.44,1.83c2.5,1.21,3.81,2.63,3.9,4.18,0,.93-.41,2-6.68,7.33l-.16.12c11.33-3,20.3-6.18,25.93-7.64a157.27,157.27,0,0,0,16.83-5.27c5.62-1.94,9.12-2.73,12.08-2.73a14,14,0,0,1,7.32,1.94c1.78,1.12,2.71,2.27,2.77,3.42s-.78,2.31-2.72,3.93c-3.12,2.36-6.93,5.39-11.35,9s-8.64,7.35-12.54,11.12a103.55,103.55,0,0,0-9.9,10.8c-2.46,3.19-3.67,5.66-3.57,7.36.07,1.39.91,2.24,4.29,2.09a65,65,0,0,0,14.89-2.52c5.59-1.6,23.3-6.44,28.43-11.81a158.58,158.58,0,0,1,31.34-27.77,14.57,14.57,0,0,1,3.33-1.35,109.05,109.05,0,0,1,12.43-1.22c5.27,0,8.1,1.57,7.66,3.22a5.14,5.14,0,0,1-.78,1.16c-10,9.19-18.51,16.76-25.3,22.5a44.23,44.23,0,0,0-7.54,7.71,19.81,19.81,0,0,0-1.36,2.39,5.24,5.24,0,0,0-.57,3.21c.17.94,1.39,1.57,4.21,1.57a55.43,55.43,0,0,0,14.89-2.53,195.59,195.59,0,0,0,19.75-6.88c6.75-2.75,19.56-8.9,35.55-21.48,5-4.2,11.84-10.5,12-10.72,2-1.91,3.86-3.46,7.43-3.46,1.48,0,3.06.24,7.11,1.48,3.89,1.21,6,3,6.14,5.19a3.22,3.22,0,0,1-.76,2,209.22,209.22,0,0,1,55.33-12c5.22-.41,18.91-.68,24,.39C1342.24,524.11,1344.94,525.61,1343.47,527.19Z" />
      <path class="add7a367-b6b6-4dd9-b34a-26f7b050cca9"
        d="M986.61,533.54c-1.29-.64-4.86-.27-7,.54-12.14,4.68-19,11.39-26.08,21.15,6.7-.34,20.22-3.47,28.66-8C988.1,544.07,992.21,536.3,986.61,533.54Z" />
      <path class="add7a367-b6b6-4dd9-b34a-26f7b050cca9"
        d="M799.21,494.89q-9.53,4.08-20.77,8.95t-22,9.7c-7.14,3.22-13.82,6.36-19.93,9.34-1.23.59-6,2.86-13.7,6.59,1,0,2,.09,3.08.09l40,0c9.72,0,17.59,0,23.67.11,6.51.08,11.05.3,13.84.64l.78.11c1-2.84,2.16-6.67,3.56-11.41,0,0,9.21-30.91,9.45-31.68-.67.27-1.44.59-2.29,1C810.75,490,805.54,492.18,799.21,494.89Z" />
    </g>
  </g>
</svg>