<svg xmlns="http://www.w3.org/2000/svg" viewBox="0 0 880 1920"><defs><style>.ec5d8dae-d450-4b18-82dc-9a00aad6ba3e{fill:#000000;}</style></defs><g id="f13f612b-099e-49d7-b81e-fa8a55c77d93" data-name="图层 2"><g id="bda5297b-ad27-4eee-b2e9-8e73b6756ebd" data-name="图层 1"><path class="ec5d8dae-d450-4b18-82dc-9a00aad6ba3e" d="M0,0V1920H880V0ZM665.48,924.11c8.23,0,15,1.92,15.14,4,.09,1.77-9.64,5.08-16.46,5.74-9.23.9-10.59-2.6-10.77-5C653.13,925.33,658.62,924.13,665.48,924.11ZM374.08,992c-3.24.9-24.11,3-29.66,4-8.33,1.48-36.29,11.85-43.1,13.23a99.74,99.74,0,0,1-10.4,1.21l-.62.06c-4.25,0-16.18.27-14.68-5.62l.18-1.11,0-.12s.82-3.09,1.53-5.91,5.94-18.86,6.78-22,1.61-6.19,2.32-9a21.87,21.87,0,0,0,1-5.18c0-.94-1.21-2-3.44-3.2-2.42-1.3-6.17-1.57-11-2.17-1.23-.18-4.09-.42-10.79-.59-5.87-.15-40.27-.16-48.08-.16-2.19,0-5,0-7.9,0-3.31,0-5.05,0-7.71-.17-19.53,9.63-47.1,23.54-81,41.7a238.85,238.85,0,0,0-32.12,20.37c-9.85,4.91-21.2-.12-21.2-.12l-.52-.56c-3-2.65,1.08-5.17,5.26-7.68,3.59-2.14,9.78-5.58,15.8-8.53,54-25.83,129-62.81,162.31-77.77s55-24.29,64.5-27.66a119,119,0,0,1,11.59-3.59,65.55,65.55,0,0,1,11.65-1.57c2.39,0,5.12.85,5.7,2.63a3.31,3.31,0,0,1-.95,3.24c-2.68,3-16.44,35.65-22.86,62.28-1.2,5-7.4,34.73-7.51,36-.33,3.8,4.45,2.67,4.48,2.68.65-.05,9.1-1.94,25.28-6,.4-3.48,6.67-42.3,13.2-46.52a35.23,35.23,0,0,1,5.71-2.2c8.13-2.42,10.81-3.13,15.18-3.73,0,0,4-.59,5,.48s.55,2.09-.77,5.54c-1.38,3.63-3.15,6.84-6.83,17.65a81.94,81.94,0,0,0-3.86,16.6l.42,0c9.16,0,15.16-9.82,29.32-20.85,9.43-7.35,29.23-21,37-24.38,6.39-2.84,10.92-.33,11.32.62.62,1.15-22.45,14.36-39.14,30.56C385.09,984.1,377.59,991,374.08,992ZM809,945.69c-2.74,2.94-7.26,6.41-10.39,7.23-4.06.84-7.85.28-15.87-1.32-2.78-.55-29.22-2.64-56.21,8.48-8.1,3.32-21,13.79-24.35,16.56s-16.54,14.76-20.26,17.83c-.57.66-2.28,1.87-6.63,1.87-2.29,0-4.2-.67-6.93-1.91-3.06-1.37-4.4-2.46-4.47-3.65s1-2.88,3.32-5l2.26-2.07c-2,.87-17.29,6.92-25.12,8.81a105.21,105.21,0,0,1-24.35,3,63.6,63.6,0,0,1-10.86-.86c-2.8-.48-7.51-1.9-7.73-6a.89.89,0,0,1,0-.28c-.51.27-14.78,5.41-21.13,6.93a104.48,104.48,0,0,1-24.34,3,62.53,62.53,0,0,1-10.86-.88c-2.81-.48-7.52-1.89-7.75-5.93-.12-2.33,1.24-5.11,4.19-8.47A132.22,132.22,0,0,1,551,973.3q5.4-5.06,11.21-10.32c2-1.85,6.7-5.67,8.32-7.37a5.21,5.21,0,0,0-1.66.34c-4,1.27-23.91,6.06-28,7.95a116.14,116.14,0,0,0-29.22,19.91c-3.1,3-7,6.35-11.62,10a9.76,9.76,0,0,1-6.38,2.35c-3.74,0-6.76-1.25-8.58-3.9-1.6-2.33-1.66-3.22-1.69-3.76a3.26,3.26,0,0,1,.3-1.45c-.76.27-1.52.56-2.3.83a187.59,187.59,0,0,1-24.49,6.53A134.35,134.35,0,0,1,430.71,997c-15.8,0-24.73-4-25.13-11.21-.24-4.24,1.7-8.85,5.73-13.69A64.76,64.76,0,0,1,427,959a106.65,106.65,0,0,1,21.64-10.1,78.57,78.57,0,0,1,24.47-4.29c11.55-.2,15.42,5.35,15.76,7.41,2.81,17.13-39.3,23.27-56.2,24.65a13.39,13.39,0,0,0-.94,5.6c.24,4.47,3.36,6.21,11.08,6.21a81.46,81.46,0,0,0,17.84-2.1,157.74,157.74,0,0,0,18.81-5.54,151.64,151.64,0,0,0,16.83-7.3q6.19-3.19,10.69-6c1.94-2.11,3.93-4.29,5.93-6.52,4.44-4.92,8.27-9.38,11.36-13.24l.28-.29c1.64-1.43,4.4-2.21,7.77-2.21a18.26,18.26,0,0,1,8.09,1.75c2.41,1.16,3.66,2.53,3.74,4,.05.89-.39,1.91-6.41,7l-.15.12c10.88-2.88,19.48-5.94,24.89-7.34a150.55,150.55,0,0,0,16.15-5.06c5.39-1.86,8.75-2.62,11.59-2.62a13.43,13.43,0,0,1,7,1.87c1.71,1.07,2.6,2.17,2.65,3.27s-.74,2.22-2.61,3.78c-3,2.26-6.65,5.17-10.89,8.63s-8.29,7.05-12,10.67a99.81,99.81,0,0,0-9.5,10.37c-2.36,3.06-3.51,5.43-3.42,7.06.07,1.34.87,2.15,4.12,2a62.41,62.41,0,0,0,14.29-2.41c5.36-1.54,22.35-6.18,27.28-11.34a151.67,151.67,0,0,1,30.07-26.64,14.26,14.26,0,0,1,3.2-1.29,103.12,103.12,0,0,1,11.93-1.18c5,0,7.77,1.51,7.35,3.09a5.16,5.16,0,0,1-.75,1.11c-9.59,8.83-17.77,16.09-24.28,21.6a42.57,42.57,0,0,0-7.24,7.39,19.52,19.52,0,0,0-1.3,2.3,5.07,5.07,0,0,0-.55,3.08c.17.9,1.34,1.51,4,1.51a53.49,53.49,0,0,0,14.3-2.43,189.65,189.65,0,0,0,19-6.6c6.47-2.65,18.76-8.55,34.1-20.62,4.8-4,11.36-10.08,11.53-10.29,1.9-1.83,3.71-3.32,7.13-3.32,1.42,0,2.94.24,6.82,1.43s5.77,2.86,5.89,5a3.08,3.08,0,0,1-.72,1.89,201.33,201.33,0,0,1,53.09-11.5c5-.39,18.15-.65,23,.38C807.81,942.72,810.39,944.17,809,945.69Z"/><path class="ec5d8dae-d450-4b18-82dc-9a00aad6ba3e" d="M466.54,951.78c-1.25-.62-4.67-.26-6.72.52-11.65,4.49-18.27,10.92-25,20.29,6.43-.33,19.41-3.33,27.5-7.66C468,961.89,471.9,954.42,466.54,951.78Z"/><path class="ec5d8dae-d450-4b18-82dc-9a00aad6ba3e" d="M286.7,914.69q-9.13,3.91-19.93,8.59t-21.14,9.31c-6.85,3.09-13.26,6.1-19.12,9-1.19.57-5.77,2.75-13.15,6.33.93,0,1.91.08,2.95.08l38.4-.05c9.33,0,16.88,0,22.71.1,6.25.09,10.61.29,13.29.63.27,0,.52.06.74.1.94-2.73,2.08-6.41,3.42-11,0,0,8.84-29.66,9.07-30.4-.65.26-1.39.56-2.2.91C297.77,910,292.77,912.09,286.7,914.69Z"/></g></g></svg>